<?xml version="1.0" encoding="utf-8"?>
<!-- Generator: Adobe Illustrator 18.0.0, SVG Export Plug-In . SVG Version: 6.00 Build 0)  -->
<!DOCTYPE svg PUBLIC "-//W3C//DTD SVG 1.1//EN" "http://www.w3.org/Graphics/SVG/1.1/DTD/svg11.dtd">
<svg version="1.1" id="Layer_1" xmlns="http://www.w3.org/2000/svg" xmlns:xlink="http://www.w3.org/1999/xlink" x="0px" y="0px"
	 viewBox="0 0 180 50" style="enable-background:new 0 0 180 50;" xml:space="preserve">
<style type="text/css">
	.st0{fill:#2C3E50;}
</style>
<g>
	<g>
		<path class="st0" d="M26.1,21.6c1.7,0,3.3,0.8,4.5,2.1c2.3,2.5,6.8,6,10.1,7.9c1.6,0.9,3,3,3.5,5.1c0.3,1.1,0.4,2.8-0.6,4.2
			c-1.1,1.7-3,2.6-5.1,2.6c-0.2,0-0.4,0-0.6,0c-1.1-0.1-2.5-0.2-4.1-0.2c-1.8,0-3.3,0.1-4.4,0.4c-2,0.4-5.7,2.3-7.1,3.2
			c-1.2,0.7-2.4,1.1-3.6,1.1c-1,0-2-0.3-2.8-0.8c-1.3-0.8-2.3-2.4-2.6-4.4c-0.3-2,0.1-4.1,1.2-5.4c2.9-3.6,5.8-10.8,6.3-12.3
			c0.7-1.7,2.2-3,4.1-3.4C25.3,21.7,25.7,21.6,26.1,21.6 M26.1,19.6c-0.5,0-1.1,0.1-1.6,0.2c-2.5,0.6-4.6,2.3-5.5,4.7
			c-1.4,3.6-3.9,9.1-6,11.7c-3,3.8-1.9,10.3,1.9,12.7c1.2,0.7,2.5,1.1,3.9,1.1c1.6,0,3.2-0.5,4.7-1.4c1.3-0.8,4.8-2.5,6.5-2.9
			c1.2-0.3,2.6-0.3,4-0.3c1.6,0,3.1,0.1,4,0.2c0.2,0,0.5,0,0.7,0c2.8,0,5.3-1.2,6.8-3.5c2.7-4.1-0.1-10.1-3.6-12.1
			c-3.3-1.9-7.6-5.4-9.6-7.5C30.5,20.6,28.4,19.6,26.1,19.6L26.1,19.6z"/>
		<path class="st0" d="M12.8,6L12.8,6c1.9,0,4.1,1.8,5.2,4.3c1.4,3.1,0.9,6.5-1.1,7.4c-0.3,0.1-0.7,0.2-1.1,0.2
			c-1.9,0-4.1-1.8-5.2-4.3c-1.4-3.1-0.9-6.5,1.1-7.4C12.1,6.1,12.5,6,12.8,6 M12.8,4c-0.7,0-1.3,0.1-1.9,0.4
			c-3.1,1.4-4,5.9-2.1,10.1c1.5,3.4,4.4,5.5,7.1,5.5c0.7,0,1.3-0.1,1.9-0.4c3.1-1.4,4-5.9,2.1-10.1C18.4,6.2,15.5,4,12.8,4L12.8,4z"
			/>
		<path class="st0" d="M30.7,2l0.1,0c1.4,0.1,2.3,1.1,2.8,1.8c0.9,1.3,1.3,3.1,1.3,4.9c-0.1,3.4-2.2,6.3-4.4,6.3l-0.1,0
			c-1.4-0.1-2.3-1.1-2.8-1.8c-0.9-1.3-1.3-3.1-1.3-4.9C26.4,4.9,28.4,2,30.7,2 M30.7,0c-3.4,0-6.2,3.6-6.4,8.3
			c-0.2,4.7,2.5,8.6,5.9,8.8c0.1,0,0.1,0,0.2,0c3.4,0,6.2-3.6,6.4-8.3C37,4.1,34.3,0.1,30.9,0C30.8,0,30.8,0,30.7,0L30.7,0z"/>
		<path class="st0" d="M4.7,20.7L4.7,20.7c1.6,0,3.4,1.2,4.6,3c0.8,1.3,1.2,2.7,1.1,4c-0.1,0.6-0.3,1.8-1.3,2.5
			c-0.4,0.3-0.9,0.4-1.4,0.4c-1.6,0-3.4-1.2-4.6-3c-0.8-1.3-1.2-2.7-1.1-4c0.1-0.6,0.3-1.8,1.3-2.5C3.7,20.8,4.2,20.7,4.7,20.7
			 M4.7,18.7c-0.9,0-1.7,0.2-2.5,0.7c-2.6,1.7-3,5.8-0.8,9.3c1.6,2.5,4,3.9,6.2,3.9c0.9,0,1.7-0.2,2.5-0.7c2.6-1.7,3-5.8,0.8-9.3
			C9.4,20.1,6.9,18.7,4.7,18.7L4.7,18.7z"/>
		<path class="st0" d="M44.8,11.9L44.8,11.9c0.2,0,0.5,0,0.7,0.1c2,0.5,2.9,3.4,2.1,6.3c-0.7,2.5-2.6,4.3-4.4,4.3
			c-0.2,0-0.5,0-0.7-0.1c-2-0.5-2.9-3.4-2.1-6.3C41.1,13.8,43,11.9,44.8,11.9 M44.8,9.9c-2.7,0-5.4,2.3-6.3,5.8
			c-1.1,4,0.5,7.9,3.5,8.7c0.4,0.1,0.8,0.2,1.2,0.2c2.7,0,5.4-2.3,6.3-5.8c1.1-4-0.5-7.9-3.5-8.7C45.6,10,45.2,9.9,44.8,9.9
			L44.8,9.9z"/>
	</g>
	<g>
		<path class="st0" d="M60.3,14.4c1.3,0,3.5-0.2,5.4-0.2c5.7,0,8.9,2,8.9,6.1c0,4.5-4,7.1-8.9,7.1c-0.9,0-1.8-0.1-2.3-0.2v7.6
			c1.3,0.3,2.9,0.4,4,0.5c0,0.5-0.2,1-0.4,1.5h-9.6c-0.1-0.5-0.3-1.1-0.3-1.6c0.9-0.1,2-0.2,3.1-0.5V16.4c-1-0.2-2.2-0.4-3.1-0.5
			c0-0.5,0.2-1.1,0.3-1.6L60.3,14.4z M63.3,24.8c0.7,0.1,1.7,0.3,2.6,0.3c3.4,0,5.7-1.8,5.7-4.5c0-2.5-2-4-5.6-4
			c-1,0-2.8,0.1-2.8,0.1L63.3,24.8z"/>
		<path class="st0" d="M89,34.2c0.8-0.2,1.8-0.2,2.7-0.2c0.2,0.4,0.2,1.1,0.2,1.6c-1.4,0.2-3,0.6-4.6,1.4h-0.6c-0.1-1-0.3-2-0.3-3
			c-1.3,1.7-3.2,3-5.5,3c-2.5,0-4.1-1.6-4.1-4c0-3.2,2.8-4.5,6.2-5.4l3.4-0.9c0.1-2.9-1.4-4.1-3.6-4.1c-1.3,0-2.4,0.5-3.1,0.9
			c-0.2,0.9-0.3,1.9-0.4,2.8c-0.5,0-1.1-0.2-1.6-0.3V22c0,0,2.2-1.5,5.6-1.5c4,0,6.2,2.1,6,6.1L89,34.2z M83.7,29.7
			c-2.4,0.7-3.8,1.3-3.8,3c0,1.3,0.8,2.2,2.3,2.2c2.6,0,4-2.5,4.2-5.1V29L83.7,29.7z"/>
		<path class="st0" d="M119.5,20.8c0.1,0.5,0.2,1.1,0.2,1.6c-0.8,0.1-1.3,0.2-1.9,0.3c-0.2,0.5-0.4,1.4-0.7,2.2L113,36.7
			c-1.1,0.2-1.9,0.2-2.8,0.1l-4-11.3l-4,11.1c-1.1,0.2-1.9,0.2-2.8,0.1l-4.5-12.7c-0.2-0.5-0.3-1-0.4-1.5c-0.6-0.2-1-0.3-1.9-0.3
			c0-0.5,0.2-1.1,0.2-1.6h1.5c0.8,0,1.6-0.1,2.4-0.2l3.8,11.7c0.2,0.5,0.4,1.4,0.5,2c1.1-4,2.4-7.8,3.9-11.4c-1-0.2-2.1-0.4-2.9-0.5
			c0-0.5,0.2-1.1,0.3-1.6h2.8c0.8,0,1.6-0.1,2.4-0.1l3.7,11.6c0.2,0.5,0.4,1.4,0.5,2c1.1-3.9,2.4-7.8,3.8-11.4c-1-0.3-2.1-0.4-3-0.5
			c0-0.5,0.2-1.1,0.3-1.6H119.5z"/>
		<path class="st0" d="M124.3,14.4c1.3,0,3.5-0.2,5.4-0.2c5.7,0,8.9,2,8.9,6.1c0,4.5-4,7.1-8.9,7.1c-0.9,0-1.8-0.1-2.3-0.2v7.6
			c1.3,0.3,2.9,0.4,4,0.5c0,0.5-0.2,1-0.4,1.5h-9.6c-0.1-0.5-0.3-1.1-0.3-1.6c0.9-0.1,2-0.2,3.1-0.5V16.4c-1-0.2-2.2-0.4-3.1-0.5
			c0-0.5,0.2-1.1,0.3-1.6L124.3,14.4z M127.3,24.8c0.7,0.1,1.7,0.3,2.6,0.3c3.4,0,5.8-1.8,5.8-4.5c0-2.5-2-4-5.6-4
			c-1,0-2.8,0.1-2.8,0.1V24.8z"/>
		<path class="st0" d="M147.2,34.7c1,0.2,2.2,0.4,3.1,0.5c0,0.5-0.2,1.1-0.3,1.6h-8.7c-0.1-0.5-0.3-1.1-0.3-1.6
			c0.9-0.1,2-0.2,3.1-0.5V23.4c-0.8,0.2-1.9,0.3-2.9,0.2c-0.2-0.5-0.2-1-0.2-1.6c1.4-0.2,3-0.6,4.6-1.5h1.5V34.7z M143.6,15
			c0-1,0.8-1.8,1.9-1.8c1,0,1.9,0.8,1.9,1.8s-0.8,1.8-1.9,1.8C144.4,16.8,143.6,16,143.6,15z"/>
		<path class="st0" d="M165.5,25.9c-0.5,0.1-1.1,0.3-1.6,0.3c-0.1-0.8-0.2-1.9-0.5-2.9c-0.5-0.3-1.3-0.6-2.4-0.6
			c-3,0-5.3,2.5-5.4,6.3c0,3.6,2.1,5.9,5.1,5.9c2.6,0,4.5-1.7,4.5-1.7c0.4,0.2,0.6,0.7,0.6,1.6c0,0-2.3,2.4-6.1,2.4
			c-4.3,0-7.3-3.1-7.3-7.9c0-5.2,3.8-8.8,8.4-8.8c2.4,0,4.1,0.9,4.5,1.2V25.9z"/>
		<path class="st0" d="M176.3,28.2c2,1,3.1,2.2,3.1,4.3c0,3.1-2.5,4.6-6.1,4.6c-2.5,0-4.5-0.7-5-0.9v-3.7c0.5-0.1,1.1-0.3,1.6-0.3
			c0,0.7,0.2,1.5,0.3,2.3c0.8,0.2,1.8,0.4,2.8,0.4c1.9,0,3.3-0.7,3.3-2.3c0-1-0.6-1.7-1.6-2.2l-3.3-1.7c-1.8-0.9-2.7-2.2-2.7-3.9
			c0-2.6,2.3-4.4,5.9-4.4c2.1,0,3.8,0.6,4.1,0.7v3.8c-0.5,0.1-1.1,0.3-1.6,0.3c0-0.7-0.2-1.5-0.3-2.4c-0.6-0.1-1.2-0.2-1.9-0.2
			c-2.1,0-3.3,0.7-3.3,2.1c0,1,0.6,1.5,1.7,2L176.3,28.2z"/>
	</g>
</g>
</svg>
